# xmcd CD database file
#
# Track frame offsets:
#	182
#	15105
#	27835
#	47272
#	62585
#	81487
#	105190
#	120615
#	145822
#	167557
#	183222
#	199147
#	215397
#	229392
#	252732
#	272375
#	287272
#	306407
#	321942
#	338322
#
# Disc length: 4741 seconds
#
# Revision: 3
# Processed by: cddbd v1.5.2PL0 Copyright (c) Steve Scherf et al.
# Submitted via: CDex 1.70beta2
#
DISCID=07128314
DTITLE=Blue Magic - The Best Of Blue Magic - Soulful Spell
DYEAR=1981
DGENRE=R&B
TTITLE0=Spell (Ted Mills) (1972)
TTITLE1=Look Me Up (Harris-Felder) (1973)
TTITLE2=What's Come Over Me (Ted Mills) (1973)
TTITLE3=Stop To Start (Grant-Felder) (1973)
TTITLE4=Sideshow (Eli-Barrett) (1974)
TTITLE5=Welcome To The Club (Harris-Felder) (1974)
TTITLE6=Answer To My Prayer (Harris-Felder) (1974)
TTITLE7=Tear It Down (MIlls-Felder) (1974)
TTITLE8=Three Ring Circus (Eli-Barrett) (1974)
TTITLE9=Love Has Found Its Way To Me (Eli-Waldman) (1974)
TTITLE10=Stringin' Me Along (Harris-Cooper-Tyson) (1975)
TTITLE11=Chasing Rainbows (Ted Mills) (1965)
TTITLE12=Haunted (By Your Love) (Tyson-Felder-Hawes) (1975)
TTITLE13=The Loneliest House On The Block (Harris-Felder) (1975)
TTITLE14=Grateful (Eli-Barrett) (1976)
TTITLE15=Freak-n-Stein (Eli-Barry) (1976)
TTITLE16=Teach Me (It's Something About Love) (Keith Barrow) (1976)
TTITLE17=I Waited (Bailey-Straughter-Waters) (1978)
TTITLE18=Land Of Make-Believe (Eli-Barrett) (1981)
TTITLE19=Magic #
EXTD=YEAR: 1981
EXTT0=
EXTT1=
EXTT2=
EXTT3=
EXTT4=
EXTT5=
EXTT6=
EXTT7=
EXTT8=
EXTT9=
EXTT10=
EXTT11=
EXTT12=
EXTT13=
EXTT14=
EXTT15=
EXTT16=
EXTT17=
EXTT18=
EXTT19=
PLAYORDER=
